# xmcd
#
# Track frame offsets: 
#        150
#        10100
#        20797
#        31875
#        41347
#        53112
#        62900
#        79775
#        89947
#        100200
#        112425
#        123322
#
# Disc length: 1825 seconds
#
# Revision: 1
# Processed by: cddbd v1.5PL3 Copyright (c) Steve Scherf et al.
# Submitted via: ExactAudioCopy v0.95a1
#
DISCID=a3071f0c
DTITLE=Patsy Cline - The Patsy Cline Collection [CD2]
DYEAR=1900
DGENRE=Country
TTITLE0=Heartaches
TTITLE1=Your Cheatin' Heart
TTITLE2=Leavin' On Your Mind
TTITLE3=Back In Baby's Arms
TTITLE4=Sweet Dreams (Of You)
TTITLE5=Blue Moon Of Kentucky
TTITLE6=Faded Love
TTITLE7=Strange
TTITLE8=That's How A Heartache Begins
TTITLE9=Always
TTITLE10=Crazy Arms
TTITLE11=She's Got You
EXTD=
EXTT0=
EXTT1=
EXTT2=
EXTT3=
EXTT4=
EXTT5=
EXTT6=
EXTT7=
EXTT8=
EXTT9=
EXTT10=
EXTT11=
PLAYORDER=
